<svg width="24" height="24" viewBox="0 0 24 24" fill="none" xmlns="http://www.w3.org/2000/svg">
<path d="M3.88636 10.6364C3.85227 10.3485 3.71402 10.125 3.47159 9.96591C3.22917 9.80682 2.93182 9.72727 2.57955 9.72727C2.32197 9.72727 2.09659 9.76894 1.90341 9.85227C1.71212 9.93561 1.5625 10.0502 1.45455 10.196C1.34848 10.3419 1.29545 10.5076 1.29545 10.6932C1.29545 10.8485 1.33239 10.982 1.40625 11.0938C1.48201 11.2036 1.5786 11.2955 1.69602 11.3693C1.81345 11.4413 1.93655 11.5009 2.06534 11.5483C2.19413 11.5937 2.3125 11.6307 2.42045 11.6591L3.01136 11.8182C3.16288 11.858 3.33144 11.9129 3.51705 11.983C3.70455 12.053 3.88352 12.1487 4.05398 12.2699C4.22633 12.3892 4.36837 12.5426 4.48011 12.7301C4.59186 12.9176 4.64773 13.1477 4.64773 13.4205C4.64773 13.7348 4.56534 14.0189 4.40057 14.2727C4.23769 14.5265 3.99905 14.7282 3.68466 14.8778C3.37216 15.0275 2.99242 15.1023 2.54545 15.1023C2.12879 15.1023 1.76799 15.035 1.46307 14.9006C1.16004 14.7661 0.921402 14.5786 0.747159 14.3381C0.574811 14.0975 0.477273 13.8182 0.454545 13.5H1.18182C1.20076 13.7197 1.27462 13.9015 1.40341 14.0455C1.53409 14.1875 1.69886 14.2936 1.89773 14.3636C2.09848 14.4318 2.31439 14.4659 2.54545 14.4659C2.81439 14.4659 3.05587 14.4223 3.26989 14.3352C3.4839 14.2462 3.65341 14.1231 3.77841 13.9659C3.90341 13.8068 3.96591 13.6212 3.96591 13.4091C3.96591 13.2159 3.91193 13.0587 3.80398 12.9375C3.69602 12.8163 3.55398 12.7178 3.37784 12.642C3.2017 12.5663 3.01136 12.5 2.80682 12.4432L2.09091 12.2386C1.63636 12.108 1.27652 11.9214 1.01136 11.679C0.746212 11.4366 0.613636 11.1193 0.613636 10.7273C0.613636 10.4015 0.701705 10.1174 0.877841 9.875C1.05587 9.63068 1.29451 9.44129 1.59375 9.30682C1.89489 9.17045 2.23106 9.10227 2.60227 9.10227C2.97727 9.10227 3.31061 9.16951 3.60227 9.30398C3.89394 9.43655 4.125 9.61837 4.29545 9.84943C4.4678 10.0805 4.55871 10.3428 4.56818 10.6364H3.88636ZM8.29474 15.7273V8.45455H9.97656V9.01136H8.93111V15.1705H9.97656V15.7273H8.29474ZM13.826 15.272C12.082 15.272 10.658 13.856 10.658 12.104C10.658 10.352 12.082 8.936 13.826 8.936C15.578 8.936 16.994 10.352 16.994 12.104C16.994 13.856 15.578 15.272 13.826 15.272ZM13.826 14.72C15.274 14.72 16.442 13.552 16.442 12.104C16.442 10.656 15.274 9.488 13.826 9.488C12.378 9.488 11.21 10.656 11.21 12.104C11.21 13.552 12.378 14.72 13.826 14.72ZM13.826 14.336C12.586 14.336 11.594 13.344 11.594 12.104C11.594 10.864 12.586 9.872 13.826 9.872C15.066 9.872 16.066 10.864 16.066 12.104C16.066 13.344 15.066 14.336 13.826 14.336ZM19.2166 11.75C18.9761 11.75 18.7564 11.6913 18.5575 11.5739C18.3606 11.4564 18.2034 11.2992 18.0859 11.1023C17.9685 10.9034 17.9098 10.6837 17.9098 10.4432C17.9098 10.2027 17.9685 9.9839 18.0859 9.78693C18.2034 9.58807 18.3606 9.42992 18.5575 9.3125C18.7564 9.19508 18.9761 9.13636 19.2166 9.13636C19.4571 9.13636 19.6759 9.19508 19.8729 9.3125C20.0717 9.42992 20.2299 9.58807 20.3473 9.78693C20.4647 9.9839 20.5234 10.2027 20.5234 10.4432C20.5234 10.6837 20.4647 10.9034 20.3473 11.1023C20.2299 11.2992 20.0717 11.4564 19.8729 11.5739C19.6759 11.6913 19.4571 11.75 19.2166 11.75ZM19.2166 11.1818C19.353 11.1818 19.477 11.1487 19.5888 11.0824C19.7005 11.0161 19.7895 10.9271 19.8558 10.8153C19.9221 10.7036 19.9553 10.5795 19.9553 10.4432C19.9553 10.3068 19.9221 10.1828 19.8558 10.071C19.7895 9.95928 19.7005 9.87027 19.5888 9.80398C19.477 9.73769 19.353 9.70455 19.2166 9.70455C19.0803 9.70455 18.9562 9.73769 18.8445 9.80398C18.7327 9.87027 18.6437 9.95928 18.5774 10.071C18.5111 10.1828 18.478 10.3068 18.478 10.4432C18.478 10.5795 18.5111 10.7036 18.5774 10.8153C18.6437 10.9271 18.7327 11.0161 18.8445 11.0824C18.9562 11.1487 19.0803 11.1818 19.2166 11.1818ZM22.9858 8.90909V16.1818H21.304V15.625H22.3494V9.46591H21.304V8.90909H22.9858Z" fill="#1E293B"/>
<path d="M3.88636 10.6364L3.6381 10.6658C3.653 10.7916 3.75966 10.8864 3.88636 10.8864V10.6364ZM3.47159 9.96591L3.33443 10.1749L3.33443 10.1749L3.47159 9.96591ZM1.90341 9.85227L1.80439 9.62272L1.80356 9.62308L1.90341 9.85227ZM1.45455 10.196L1.2536 10.0473L1.25236 10.049L1.45455 10.196ZM1.40625 11.0938L1.19765 11.2316L1.20045 11.2357L1.40625 11.0938ZM1.69602 11.3693L1.5629 11.5809L1.56538 11.5825L1.69602 11.3693ZM2.06534 11.5483L1.97907 11.783L1.98214 11.784L2.06534 11.5483ZM2.42045 11.6591L2.48545 11.4177L2.48408 11.4173L2.42045 11.6591ZM3.01136 11.8182L2.94637 12.0596L2.94789 12.06L3.01136 11.8182ZM3.51705 11.983L3.42874 12.2168L3.42952 12.2171L3.51705 11.983ZM4.05398 12.2699L3.90909 12.4736L3.91167 12.4754L4.05398 12.2699ZM4.48011 12.7301L4.69487 12.6021L4.69487 12.6021L4.48011 12.7301ZM4.40057 14.2727L4.19088 14.1366L4.19017 14.1377L4.40057 14.2727ZM3.68466 14.8778L3.57723 14.6521L3.5767 14.6524L3.68466 14.8778ZM1.46307 14.9006L1.36167 15.1291L1.36219 15.1293L1.46307 14.9006ZM0.747159 14.3381L0.543939 14.4837L0.5447 14.4847L0.747159 14.3381ZM0.454545 13.5V13.25C0.385147 13.25 0.318871 13.2788 0.27158 13.3296C0.224288 13.3804 0.200236 13.4486 0.205181 13.5178L0.454545 13.5ZM1.18182 13.5L1.43089 13.4785C1.41975 13.3493 1.31157 13.25 1.18182 13.25V13.5ZM1.40341 14.0455L1.21708 14.2122L1.21943 14.2147L1.40341 14.0455ZM1.89773 14.3636L1.81463 14.5994L1.81733 14.6004L1.89773 14.3636ZM3.26989 14.3352L3.36415 14.5668L3.3659 14.5661L3.26989 14.3352ZM3.77841 13.9659L3.97409 14.1215L3.97499 14.1204L3.77841 13.9659ZM3.80398 12.9375L3.99067 12.7712L3.99067 12.7712L3.80398 12.9375ZM3.37784 12.642L3.27906 12.8717L3.27906 12.8717L3.37784 12.642ZM2.80682 12.4432L2.73814 12.6836L2.73991 12.6841L2.80682 12.4432ZM2.09091 12.2386L2.02183 12.4789L2.02223 12.479L2.09091 12.2386ZM1.01136 11.679L0.842671 11.8635L0.842671 11.8635L1.01136 11.679ZM0.877841 9.875L0.675792 9.72777L0.675589 9.72805L0.877841 9.875ZM1.59375 9.30682L1.69622 9.53485L1.69688 9.53456L1.59375 9.30682ZM3.60227 9.30398L3.4976 9.53101L3.49882 9.53157L3.60227 9.30398ZM4.29545 9.84943L4.09427 9.99785L4.09506 9.99891L4.29545 9.84943ZM4.56818 10.6364V10.8864C4.63588 10.8864 4.70069 10.8589 4.74779 10.8103C4.79488 10.7616 4.82023 10.696 4.81805 10.6283L4.56818 10.6364ZM4.13463 10.607C4.09185 10.2457 3.91291 9.9565 3.60876 9.7569L3.33443 10.1749C3.51512 10.2935 3.6127 10.4512 3.6381 10.6658L4.13463 10.607ZM3.60876 9.7569C3.31756 9.5658 2.96999 9.47727 2.57955 9.47727V9.97727C2.89365 9.97727 3.14077 10.0478 3.33443 10.1749L3.60876 9.7569ZM2.57955 9.47727C2.29536 9.47727 2.03502 9.52323 1.80439 9.62272L2.00243 10.0818C2.15817 10.0146 2.34858 9.97727 2.57955 9.97727V9.47727ZM1.80356 9.62308C1.57822 9.72125 1.39133 9.86124 1.25361 10.0473L1.65548 10.3448C1.73367 10.2391 1.84603 10.15 2.00326 10.0815L1.80356 9.62308ZM1.25236 10.049C1.11426 10.2389 1.04545 10.4564 1.04545 10.6932H1.54545C1.54545 10.5588 1.58271 10.4448 1.65673 10.3431L1.25236 10.049ZM1.04545 10.6932C1.04545 10.8895 1.0927 11.0728 1.1977 11.2316L1.6148 10.9559C1.57208 10.8912 1.54545 10.8075 1.54545 10.6932H1.04545ZM1.20045 11.2357C1.29622 11.3746 1.41794 11.4897 1.56291 11.5809L1.82914 11.1577C1.73926 11.1012 1.66779 11.0326 1.61205 10.9518L1.20045 11.2357ZM1.56538 11.5825C1.6968 11.663 1.83477 11.7299 1.97907 11.7829L2.15161 11.3137C2.03834 11.272 1.93009 11.2196 1.82666 11.1562L1.56538 11.5825ZM1.98214 11.784C2.116 11.8313 2.24101 11.8704 2.35683 11.9009L2.48408 11.4173C2.38399 11.391 2.27225 11.3562 2.14855 11.3125L1.98214 11.784ZM2.35546 11.9005L2.94637 12.0596L3.07636 11.5768L2.48545 11.4177L2.35546 11.9005ZM2.94789 12.06C3.08913 12.0971 3.24924 12.1491 3.42874 12.2168L3.60535 11.7491C3.41364 11.6767 3.23663 11.6188 3.07484 11.5764L2.94789 12.06ZM3.42952 12.2171C3.59577 12.2793 3.75556 12.3644 3.9091 12.4736L4.19886 12.0661C4.01149 11.9329 3.81332 11.8268 3.60457 11.7488L3.42952 12.2171ZM3.91167 12.4754C4.05338 12.5735 4.17116 12.7 4.26536 12.8581L4.69487 12.6021C4.56558 12.3852 4.39927 12.2049 4.19628 12.0643L3.91167 12.4754ZM4.26536 12.8581C4.34893 12.9983 4.39773 13.1816 4.39773 13.4205H4.89773C4.89773 13.1138 4.83478 12.8369 4.69487 12.6021L4.26536 12.8581ZM4.39773 13.4205C4.39773 13.6885 4.32828 13.925 4.19089 14.1366L4.61025 14.4089C4.8024 14.1129 4.89773 13.7812 4.89773 13.4205H4.39773ZM4.19017 14.1377C4.05618 14.3465 3.85615 14.5194 3.57723 14.6521L3.79209 15.1036C4.14196 14.9371 4.4192 14.7066 4.61097 14.4078L4.19017 14.1377ZM3.5767 14.6524C3.3062 14.7819 2.96551 14.8523 2.54545 14.8523V15.3523C3.01934 15.3523 3.43812 15.2731 3.79262 15.1033L3.5767 14.6524ZM2.54545 14.8523C2.1551 14.8523 1.83019 14.7892 1.56394 14.6718L1.36219 15.1293C1.7058 15.2808 2.10248 15.3523 2.54545 15.3523V14.8523ZM1.56447 14.6721C1.29696 14.5533 1.09507 14.3922 0.949619 14.1914L0.5447 14.4847C0.747731 14.765 1.02311 14.9788 1.36167 15.1291L1.56447 14.6721ZM0.950376 14.1925C0.807013 13.9924 0.723615 13.7581 0.70391 13.4822L0.205181 13.5178C0.23093 13.8783 0.342609 14.2027 0.543942 14.4837L0.950376 14.1925ZM0.454545 13.75H1.18182V13.25H0.454545V13.75ZM0.932742 13.5215C0.955642 13.7871 1.04722 14.0223 1.2171 14.2122L1.58972 13.8788C1.50202 13.7807 1.44587 13.6523 1.43089 13.4785L0.932742 13.5215ZM1.21943 14.2147C1.3803 14.3896 1.58085 14.517 1.81464 14.5994L1.98081 14.1278C1.81688 14.0701 1.68789 13.9854 1.58739 13.8762L1.21943 14.2147ZM1.81733 14.6004C2.0462 14.6781 2.2895 14.7159 2.54545 14.7159V14.2159C2.33929 14.2159 2.15077 14.1855 1.97812 14.1269L1.81733 14.6004ZM2.54545 14.7159C2.84149 14.7159 3.11571 14.6679 3.36415 14.5668L3.17563 14.1037C2.99603 14.1768 2.7873 14.2159 2.54545 14.2159V14.7159ZM3.3659 14.5661C3.61289 14.4633 3.81895 14.3166 3.97409 14.1215L3.58273 13.8103C3.48787 13.9296 3.35492 14.0291 3.17388 14.1044L3.3659 14.5661ZM3.97499 14.1204C4.13636 13.915 4.21591 13.6743 4.21591 13.4091H3.71591C3.71591 13.5681 3.67046 13.6986 3.58183 13.8115L3.97499 14.1204ZM4.21591 13.4091C4.21591 13.1669 4.1469 12.9466 3.99067 12.7712L3.61729 13.1038C3.67697 13.1708 3.71591 13.2649 3.71591 13.4091H4.21591ZM3.99067 12.7712C3.85438 12.6182 3.68032 12.5 3.47662 12.4124L3.27906 12.8717C3.42764 12.9356 3.53766 13.0144 3.61729 13.1038L3.99067 12.7712ZM3.47662 12.4124C3.28909 12.3317 3.088 12.2618 2.87373 12.2023L2.73991 12.6841C2.93473 12.7382 3.11431 12.8008 3.27906 12.8717L3.47662 12.4124ZM2.8755 12.2028L2.15959 11.9983L2.02223 12.479L2.73814 12.6836L2.8755 12.2028ZM2.15999 11.9984C1.73125 11.8751 1.40921 11.704 1.18006 11.4945L0.842671 11.8635C1.14382 12.1388 1.54148 12.3408 2.02183 12.4789L2.15999 11.9984ZM1.18006 11.4945C0.971761 11.304 0.863636 11.0563 0.863636 10.7273H0.363636C0.363636 11.1824 0.520664 11.5691 0.842671 11.8635L1.18006 11.4945ZM0.863636 10.7273C0.863636 10.4495 0.937725 10.2179 1.08009 10.0219L0.675589 9.72805C0.465684 10.017 0.363636 10.3536 0.363636 10.7273H0.863636ZM1.07989 10.0222C1.23016 9.81601 1.43315 9.65307 1.69622 9.53485L1.49128 9.07878C1.15586 9.22951 0.881583 9.44536 0.675792 9.72777L1.07989 10.0222ZM1.69688 9.53456C1.96184 9.41457 2.26224 9.35227 2.60227 9.35227V8.85227C2.19988 8.85227 1.82793 8.92634 1.49062 9.07908L1.69688 9.53456ZM2.60227 9.35227C2.94715 9.35227 3.24381 9.414 3.4976 9.53101L3.70694 9.07694C3.3774 8.92501 3.0074 8.85227 2.60227 8.85227V9.35227ZM3.49882 9.53157C3.75628 9.64859 3.95194 9.80491 4.09427 9.99784L4.49664 9.70102C4.29806 9.43183 4.0316 9.22451 3.70572 9.07639L3.49882 9.53157ZM4.09506 9.99891C4.23624 10.1882 4.31046 10.4009 4.31831 10.6444L4.81805 10.6283C4.80697 10.2847 4.69937 9.97281 4.49585 9.69996L4.09506 9.99891ZM4.56818 10.3864H3.88636V10.8864H4.56818V10.3864ZM8.29474 15.7273H8.04474C8.04474 15.8653 8.15667 15.9773 8.29474 15.9773V15.7273ZM8.29474 8.45455V8.20455C8.15667 8.20455 8.04474 8.31647 8.04474 8.45455H8.29474ZM9.97656 8.45455H10.2266C10.2266 8.31647 10.1146 8.20455 9.97656 8.20455V8.45455ZM9.97656 9.01136V9.26136C10.1146 9.26136 10.2266 9.14943 10.2266 9.01136H9.97656ZM8.93111 9.01136V8.76136C8.79304 8.76136 8.68111 8.87329 8.68111 9.01136H8.93111ZM8.93111 15.1705H8.68111C8.68111 15.3085 8.79304 15.4205 8.93111 15.4205V15.1705ZM9.97656 15.1705H10.2266C10.2266 15.0324 10.1146 14.9205 9.97656 14.9205V15.1705ZM9.97656 15.7273V15.9773C10.1146 15.9773 10.2266 15.8653 10.2266 15.7273H9.97656ZM8.54474 15.7273V8.45455H8.04474V15.7273H8.54474ZM8.29474 8.70455H9.97656V8.20455H8.29474V8.70455ZM9.72656 8.45455V9.01136H10.2266V8.45455H9.72656ZM9.97656 8.76136H8.93111V9.26136H9.97656V8.76136ZM8.68111 9.01136V15.1705H9.18111V9.01136H8.68111ZM8.93111 15.4205H9.97656V14.9205H8.93111V15.4205ZM9.72656 15.1705V15.7273H10.2266V15.1705H9.72656ZM9.97656 15.4773H8.29474V15.9773H9.97656V15.4773ZM13.826 15.022C12.2197 15.022 10.908 13.7175 10.908 12.104H10.408C10.408 13.9945 11.9443 15.522 13.826 15.522V15.022ZM10.908 12.104C10.908 10.4905 12.2197 9.186 13.826 9.186V8.686C11.9443 8.686 10.408 10.2135 10.408 12.104H10.908ZM13.826 9.186C15.4399 9.186 16.744 10.4901 16.744 12.104H17.244C17.244 10.2139 15.7161 8.686 13.826 8.686V9.186ZM16.744 12.104C16.744 13.7179 15.4399 15.022 13.826 15.022V15.522C15.7161 15.522 17.244 13.9941 17.244 12.104H16.744ZM13.826 14.97C15.4121 14.97 16.692 13.6901 16.692 12.104H16.192C16.192 13.4139 15.1359 14.47 13.826 14.47V14.97ZM16.692 12.104C16.692 10.5179 15.4121 9.238 13.826 9.238V9.738C15.1359 9.738 16.192 10.7941 16.192 12.104H16.692ZM13.826 9.238C12.2399 9.238 10.96 10.5179 10.96 12.104H11.46C11.46 10.7941 12.5161 9.738 13.826 9.738V9.238ZM10.96 12.104C10.96 13.6901 12.2399 14.97 13.826 14.97V14.47C12.5161 14.47 11.46 13.4139 11.46 12.104H10.96ZM13.826 14.086C12.7241 14.086 11.844 13.2059 11.844 12.104H11.344C11.344 13.4821 12.4479 14.586 13.826 14.586V14.086ZM11.844 12.104C11.844 11.0021 12.7241 10.122 13.826 10.122V9.622C12.4479 9.622 11.344 10.7259 11.344 12.104H11.844ZM13.826 10.122C14.9291 10.122 15.816 11.0032 15.816 12.104H16.316C16.316 10.7248 15.2029 9.622 13.826 9.622V10.122ZM15.816 12.104C15.816 13.2048 14.9291 14.086 13.826 14.086V14.586C15.2029 14.586 16.316 13.4832 16.316 12.104H15.816ZM18.5575 11.5739L18.4295 11.7886L18.4304 11.7891L18.5575 11.5739ZM18.0859 11.1023L17.8707 11.2294L17.8712 11.2303L18.0859 11.1023ZM18.0859 9.78693L18.3007 9.91495L18.3012 9.91404L18.0859 9.78693ZM18.5575 9.3125L18.4304 9.09723L18.4295 9.09776L18.5575 9.3125ZM19.8729 9.3125L19.7449 9.52724L19.7458 9.52777L19.8729 9.3125ZM20.3473 9.78693L20.132 9.91405L20.1326 9.91495L20.3473 9.78693ZM20.3473 11.1023L20.562 11.2303L20.5626 11.2294L20.3473 11.1023ZM19.8729 11.5739L19.7458 11.3586L19.7449 11.3591L19.8729 11.5739ZM19.5888 11.0824L19.7163 11.2974L19.7163 11.2974L19.5888 11.0824ZM19.8558 10.8153L20.0708 10.9429L20.0708 10.9429L19.8558 10.8153ZM19.8558 10.071L20.0708 9.94347L20.0708 9.94347L19.8558 10.071ZM19.5888 9.80398L19.7163 9.58896L19.7163 9.58896L19.5888 9.80398ZM18.8445 9.80398L18.7169 9.58896L18.7169 9.58896L18.8445 9.80398ZM18.5774 10.071L18.3624 9.94347L18.3624 9.94347L18.5774 10.071ZM18.5774 10.8153L18.3624 10.9429L18.3624 10.9429L18.5774 10.8153ZM19.2166 11.5C19.0189 11.5 18.8434 11.4523 18.6846 11.3586L18.4304 11.7891C18.6694 11.9303 18.9333 12 19.2166 12V11.5ZM18.6855 11.3591C18.5242 11.263 18.3968 11.1356 18.3007 10.9743L17.8712 11.2303C18.0099 11.4629 18.1969 11.6499 18.4295 11.7886L18.6855 11.3591ZM18.3012 10.9752C18.2075 10.8164 18.1598 10.6409 18.1598 10.4432H17.6598C17.6598 10.7265 17.7295 10.9904 17.8707 11.2294L18.3012 10.9752ZM18.1598 10.4432C18.1598 10.2454 18.2075 10.0713 18.3007 9.91495L17.8712 9.65892C17.7295 9.89653 17.6598 10.1599 17.6598 10.4432H18.1598ZM18.3012 9.91404C18.3975 9.75097 18.5248 9.62306 18.6855 9.52724L18.4295 9.09776C18.1963 9.23679 18.0092 9.42517 17.8707 9.65982L18.3012 9.91404ZM18.6846 9.52777C18.8434 9.43405 19.0189 9.38636 19.2166 9.38636V8.88636C18.9333 8.88636 18.6694 8.9561 18.4304 9.09723L18.6846 9.52777ZM19.2166 9.38636C19.4144 9.38636 19.5885 9.43404 19.7449 9.52724L20.0009 9.09776C19.7633 8.95611 19.4999 8.88636 19.2166 8.88636V9.38636ZM19.7458 9.52777C19.9083 9.62373 20.0361 9.75154 20.132 9.91404L20.5626 9.65982C20.4237 9.42459 20.2352 9.23612 20 9.09723L19.7458 9.52777ZM20.1326 9.91495C20.2258 10.0713 20.2734 10.2454 20.2734 10.4432H20.7734C20.7734 10.1599 20.7037 9.89653 20.562 9.65892L20.1326 9.91495ZM20.2734 10.4432C20.2734 10.6409 20.2258 10.8164 20.132 10.9752L20.5626 11.2294C20.7037 10.9904 20.7734 10.7265 20.7734 10.4432H20.2734ZM20.1326 10.9743C20.0367 11.135 19.9088 11.2623 19.7458 11.3586L20 11.7891C20.2346 11.6506 20.423 11.4635 20.562 11.2303L20.1326 10.9743ZM19.7449 11.3591C19.5885 11.4523 19.4144 11.5 19.2166 11.5V12C19.4999 12 19.7633 11.9303 20.0009 11.7886L19.7449 11.3591ZM19.2166 11.4318C19.3955 11.4318 19.564 11.3877 19.7163 11.2974L19.4612 10.8674C19.39 10.9096 19.3104 10.9318 19.2166 10.9318V11.4318ZM19.7163 11.2974C19.8641 11.2097 19.9832 11.0907 20.0708 10.9429L19.6408 10.6878C19.5959 10.7635 19.537 10.8225 19.4612 10.8674L19.7163 11.2974ZM20.0708 10.9429C20.1612 10.7906 20.2053 10.6221 20.2053 10.4432H19.7053C19.7053 10.537 19.683 10.6166 19.6408 10.6878L20.0708 10.9429ZM20.2053 10.4432C20.2053 10.2643 20.1612 10.0958 20.0708 9.94347L19.6408 10.1986C19.683 10.2698 19.7053 10.3494 19.7053 10.4432H20.2053ZM20.0708 9.94347C19.9832 9.79571 19.8641 9.67662 19.7163 9.58896L19.4612 10.019C19.5369 10.0639 19.5959 10.1229 19.6408 10.1986L20.0708 9.94347ZM19.7163 9.58896C19.564 9.49862 19.3955 9.45455 19.2166 9.45455V9.95455C19.3104 9.95455 19.39 9.97676 19.4612 10.019L19.7163 9.58896ZM19.2166 9.45455C19.0377 9.45455 18.8692 9.49862 18.7169 9.58896L18.972 10.019C19.0432 9.97676 19.1228 9.95455 19.2166 9.95455V9.45455ZM18.7169 9.58896C18.5691 9.67662 18.4501 9.79571 18.3624 9.94347L18.7924 10.1986C18.8373 10.1229 18.8963 10.0639 18.972 10.019L18.7169 9.58896ZM18.3624 9.94347C18.2721 10.0958 18.228 10.2643 18.228 10.4432H18.728C18.728 10.3494 18.7502 10.2698 18.7924 10.1986L18.3624 9.94347ZM18.228 10.4432C18.228 10.6221 18.2721 10.7906 18.3624 10.9429L18.7924 10.6878C18.7502 10.6166 18.728 10.537 18.728 10.4432H18.228ZM18.3624 10.9429C18.4501 11.0907 18.5691 11.2097 18.7169 11.2974L18.972 10.8674C18.8963 10.8225 18.8373 10.7635 18.7924 10.6878L18.3624 10.9429ZM18.7169 11.2974C18.8692 11.3877 19.0377 11.4318 19.2166 11.4318V10.9318C19.1228 10.9318 19.0432 10.9096 18.972 10.8674L18.7169 11.2974ZM22.9858 8.90909H23.2358C23.2358 8.77102 23.1239 8.65909 22.9858 8.65909V8.90909ZM22.9858 16.1818V16.4318C23.1239 16.4318 23.2358 16.3199 23.2358 16.1818H22.9858ZM21.304 16.1818H21.054C21.054 16.3199 21.1659 16.4318 21.304 16.4318V16.1818ZM21.304 15.625V15.375C21.1659 15.375 21.054 15.4869 21.054 15.625H21.304ZM22.3494 15.625V15.875C22.4875 15.875 22.5994 15.7631 22.5994 15.625H22.3494ZM22.3494 9.46591H22.5994C22.5994 9.32784 22.4875 9.21591 22.3494 9.21591V9.46591ZM21.304 9.46591H21.054C21.054 9.60398 21.1659 9.71591 21.304 9.71591V9.46591ZM21.304 8.90909V8.65909C21.1659 8.65909 21.054 8.77102 21.054 8.90909H21.304ZM22.7358 8.90909V16.1818H23.2358V8.90909H22.7358ZM22.9858 15.9318H21.304V16.4318H22.9858V15.9318ZM21.554 16.1818V15.625H21.054V16.1818H21.554ZM21.304 15.875H22.3494V15.375H21.304V15.875ZM22.5994 15.625V9.46591H22.0994V15.625H22.5994ZM22.3494 9.21591H21.304V9.71591H22.3494V9.21591ZM21.554 9.46591V8.90909H21.054V9.46591H21.554ZM21.304 9.15909H22.9858V8.65909H21.304V9.15909Z" fill="#0F172A"/>
</svg>
